    <svg version="1.1" id="Layer_1" xmlns="http://www.w3.org/2000/svg" xmlns:xlink="http://www.w3.org/1999/xlink" x="0px" y="0px"
    width="100%" viewBox="0 0 1024 1024" enable-background="new 0 0 1024 1024" xml:space="preserve">
<path fill="#FFFFFF" opacity="1.000000" stroke="none" 
   d="
M502.993164,649.316528 
   C470.277435,647.261719 438.596161,642.157166 408.823242,629.176453 
   C386.952515,619.640991 367.528931,606.216003 351.974487,587.752258 
   C341.091248,574.833374 336.309204,560.493225 341.570770,543.725403 
   C342.025665,542.275818 343.132050,540.688538 341.717773,538.406799 
   C336.315918,542.312134 330.982666,546.175293 325.641449,550.027466 
   C317.681488,555.768250 309.199554,560.244934 299.073425,560.300354 
   C289.470398,560.352905 283.977539,553.756897 285.493469,544.351196 
   C286.674866,537.021118 289.924042,530.606079 295.012421,525.435242 
   C317.651093,502.429749 342.183990,481.772552 370.605377,466.122284 
   C377.904755,462.102875 385.281158,458.224945 391.950409,453.186218 
   C393.777435,451.805908 395.820770,450.578613 397.087067,447.928009 
   C392.008575,444.835388 386.927765,441.757416 381.863403,438.652679 
   C377.305145,435.858215 372.859406,432.931335 369.676422,428.475403 
   C365.624329,422.802734 365.326599,417.668396 368.853149,413.332062 
   C372.822540,408.451172 378.099518,407.423309 384.607300,410.263855 
   C385.334534,410.581268 386.060852,410.900665 387.080933,411.347656 
   C387.737640,409.152313 388.211517,407.247467 388.875366,405.411316 
   C390.617920,400.591766 394.140411,397.707916 399.133759,396.966156 
   C403.683380,396.290314 406.624573,399.104767 409.067902,402.468231 
   C414.531799,409.989685 413.672394,418.528595 412.831696,427.015839 
   C412.652466,428.825592 412.065735,430.587555 412.518463,432.191681 
   C479.175659,373.595276 546.247864,374.958588 614.610291,430.963257 
   C615.178528,425.633423 614.612000,420.375732 615.456482,415.247192 
   C616.028442,411.773560 616.815979,408.407654 617.855408,405.067047 
   C619.259094,400.555847 621.866211,397.350922 626.879700,396.990784 
   C630.638184,396.720795 635.465271,400.760254 637.407288,405.086029 
   C638.567871,407.671326 637.699341,410.822754 639.844360,413.128815 
   C642.151062,413.253784 643.836853,411.572601 645.901245,411.067505 
   C650.505798,409.940948 655.119995,409.981354 658.333252,413.875793 
   C661.585510,417.817535 660.063110,422.033142 657.615906,425.922241 
   C652.460388,434.115356 644.290344,438.801453 636.546875,443.973755 
   C634.630676,445.253723 632.386169,446.055664 630.557556,448.205750 
   C633.688660,451.904938 637.775391,454.432251 641.655334,457.124268 
   C659.716125,469.655334 679.009949,480.364990 696.285095,494.059021 
   C709.725403,504.713165 723.615234,514.864502 733.734131,529.106323 
   C737.416870,534.289612 741.209106,539.339905 742.813171,545.627625 
   C744.779480,553.335205 740.622375,559.046204 732.715942,559.211548 
   C725.453918,559.363403 718.540344,557.749023 711.916016,554.688232 
   C701.910767,550.065308 692.965759,543.597839 682.772827,537.984619 
   C684.033203,543.064270 685.365906,547.554260 686.239441,552.131897 
   C688.310547,562.984924 684.198120,572.515381 679.098938,581.595886 
   C661.734314,612.518677 634.540161,630.446533 600.910706,639.104431 
   C574.075500,646.013184 546.614807,649.066528 518.936035,649.953613 
   C513.794189,650.118408 508.628876,649.551758 502.993164,649.316528 
M422.685547,474.500122 
   C422.159821,457.545288 424.420624,440.857208 428.415161,422.907715 
   C425.693115,425.407318 424.101685,426.818024 422.566223,428.287262 
   C414.865479,435.655823 407.574707,443.417480 400.509979,451.393188 
   C378.282745,476.486511 359.128296,503.532745 347.723572,535.403259 
   C344.594513,544.147339 341.380371,553.024902 342.893799,562.582031 
   C344.553436,573.062744 350.655029,581.196716 357.681793,588.653442 
   C360.778564,591.939697 363.532349,595.733765 368.053436,598.110352 
   C368.630920,595.768555 369.110870,593.870789 369.566437,591.967224 
   C372.809204,578.416992 378.509247,566.264404 389.226837,556.883301 
   C399.697937,547.718079 411.793732,541.678894 425.114349,537.943787 
   C427.740265,537.207458 430.393524,536.849792 429.218506,532.794617 
   C423.795593,514.079346 423.186127,494.790344 422.685547,474.500122 
M652.038879,485.416107 
   C634.129761,462.687042 618.902466,437.543030 593.390930,419.821442 
   C603.620911,458.192566 603.238831,495.644623 596.980164,533.656006 
   C630.802002,539.553467 655.540833,557.183228 669.942200,589.889709 
   C678.200562,576.760681 686.036987,564.962097 681.955688,550.225281 
   C675.606445,527.298645 665.166260,506.092468 652.038879,485.416107 
M645.612366,463.942413 
   C643.124756,462.534332 641.015747,460.379944 636.852112,459.220398 
   C643.874939,468.681488 650.147156,477.029266 656.288940,485.471924 
   C657.979858,487.796448 659.890442,489.741425 662.218201,491.444183 
   C672.705322,499.115570 683.378784,506.571045 693.448425,514.763977 
   C704.514404,523.767517 714.315613,534.159119 718.448914,548.266235 
   C719.802673,552.886780 721.592896,555.177368 726.260803,555.272461 
   C727.920349,555.306274 729.575562,555.645447 731.233459,555.651978 
   C737.756348,555.677856 740.261292,552.452820 738.873840,546.177185 
   C738.251770,543.363708 737.351379,540.686523 735.681763,538.372559 
   C728.948486,529.040894 721.905090,520.019165 713.149170,512.379639 
   C692.350281,494.232666 669.203735,479.401642 645.612366,463.942413 
M288.590424,548.824280 
   C291.516327,556.238281 301.633453,559.618286 308.100433,555.389771 
   C309.417877,554.528320 309.625824,553.328735 309.659088,551.957092 
   C309.996796,538.028992 316.412994,527.032532 326.761566,518.353394 
   C340.015656,507.237610 353.584045,496.491852 367.147247,485.751099 
   C375.323975,479.275909 380.749695,470.748962 386.031128,461.939423 
   C382.521179,463.278381 379.388794,465.056152 376.206268,466.739105 
   C346.934967,482.217499 321.932953,503.279602 298.567596,526.412109 
   C292.661041,532.259766 288.844482,539.460083 288.590424,548.824280 
M407.007233,405.635834 
   C404.854370,402.828430 402.723785,399.853699 398.496368,401.001892 
   C394.168854,402.177277 391.952606,405.263550 391.230621,409.579712 
   C390.752472,412.438049 390.202301,415.284332 389.671112,418.208893 
   C386.829803,418.242523 386.018738,416.056274 384.563324,414.872040 
   C380.500519,411.566376 375.943665,411.482422 372.356354,414.757263 
   C369.059021,417.767273 368.887756,421.468689 371.963226,425.895050 
   C372.809143,427.112518 373.816711,428.268677 374.937439,429.235870 
   C382.163879,435.472137 390.688019,439.718201 398.764374,444.651703 
   C400.712799,445.841919 401.930908,444.948120 403.505890,443.593018 
   C408.307953,439.461151 408.772980,433.880951 409.237701,428.225433 
   C409.847687,420.802521 411.271576,413.312408 407.007233,405.635834 
M618.239929,427.435974 
   C617.667847,433.689575 618.633118,439.251678 624.071899,443.466705 
   C625.997925,444.959381 627.214844,445.264557 629.272522,444.021942 
   C634.834595,440.663055 640.510071,437.484009 645.615417,433.434235 
   C649.407471,430.426147 653.149841,427.315277 655.431641,422.914948 
   C657.963745,418.031952 656.198669,414.886871 650.689575,414.241058 
   C647.174500,413.828949 644.214844,415.319366 641.243713,416.901978 
   C636.689636,419.327820 635.932251,418.871704 635.739868,413.614594 
   C635.660095,411.436005 635.557556,409.289795 634.709045,407.246460 
   C633.273743,403.789948 630.901672,401.034576 627.107361,400.818176 
   C623.045166,400.586487 621.671204,404.091156 620.450562,407.247925 
   C618.051636,413.451813 618.126770,419.960724 618.239929,427.435974 
M455.683228,514.107056 
   C459.667542,515.806335 462.759888,514.734924 465.086121,511.135681 
   C469.344879,504.546295 467.583496,489.403473 461.914429,484.049744 
   C458.448639,480.776733 455.622162,480.834961 452.453583,484.244751 
   C458.168762,486.292725 460.666840,489.469025 460.264496,494.176331 
   C459.919525,498.212402 457.220215,499.685791 453.733582,497.673828 
   C451.922821,496.628967 450.448914,494.928223 447.641022,494.794891 
   C447.616302,502.219330 448.360565,509.058228 455.683228,514.107056 
M561.961304,512.615784 
   C564.484924,515.316284 567.445862,515.555359 570.579895,513.948608 
   C576.356323,510.987122 579.857971,500.715302 577.335632,494.857758 
   C573.531433,494.636841 570.470459,502.535767 566.801392,496.690338 
   C562.989502,490.617340 568.070129,486.556427 573.377991,483.451569 
   C568.865417,480.284882 565.777893,481.659271 563.092896,485.125336 
   C558.052124,491.632324 557.260010,504.820679 561.961304,512.615784 
M425.356628,578.268555 
   C421.655579,572.869995 416.938812,573.034790 414.120728,578.869629 
   C411.186798,584.944336 411.827118,591.175110 414.238342,597.266541 
   C415.555206,600.593384 417.237061,604.125610 421.579468,603.414734 
   C425.589478,602.758362 426.926208,599.151733 427.549652,595.625549 
   C428.555908,589.934570 427.880219,584.350281 425.356628,578.268555 
M598.667480,584.370117 
   C597.845947,589.346497 597.519287,594.347900 599.559265,599.090515 
   C601.823669,604.354919 607.172058,605.162415 610.000854,600.608643 
   C613.756592,594.562622 614.894226,587.917786 612.806213,581.000610 
   C611.759949,577.534485 609.897766,574.391296 605.721497,574.320740 
   C601.643921,574.251953 600.932434,577.819641 599.761719,580.704407 
   C599.389526,581.621582 599.216492,582.619507 598.667480,584.370117 
z"/>
</svg>